<?xml version="1.0" encoding="UTF-8" standalone="no"?>
<svg
   width="26"
   height="26"
   viewBox="0 0 26 26"
   fill="none"
   version="1.1"
   id="svg32"
   sodipodi:docname="icon.svg"
   inkscape:version="1.2.1 (9c6d41e410, 2022-07-14)"
   xmlns:inkscape="http://www.inkscape.org/namespaces/inkscape"
   xmlns:sodipodi="http://sodipodi.sourceforge.net/DTD/sodipodi-0.dtd"
   xmlns="http://www.w3.org/2000/svg"
   xmlns:svg="http://www.w3.org/2000/svg">
  <defs
     id="defs36" />
  <sodipodi:namedview
     id="namedview34"
     pagecolor="#ffffff"
     bordercolor="#666666"
     borderopacity="1.0"
     inkscape:showpageshadow="2"
     inkscape:pageopacity="0.0"
     inkscape:pagecheckerboard="0"
     inkscape:deskcolor="#d1d1d1"
     showgrid="false"
     inkscape:zoom="3.7884615"
     inkscape:cx="3.5634518"
     inkscape:cy="30.883249"
     inkscape:window-width="1920"
     inkscape:window-height="1017"
     inkscape:window-x="-8"
     inkscape:window-y="-8"
     inkscape:window-maximized="1"
     inkscape:current-layer="svg32" />
  <rect
     width="26"
     height="26"
     rx="13"
     fill="#E5F0FF"
     id="rect2" />
  <circle
     cx="19.1105"
     cy="13.0004"
     r="3.44665"
     transform="rotate(90 19.1105 13.0004)"
     fill="#FFD966"
     stroke="#CC9900"
     stroke-width="0.861663"
     id="circle4"
     style="fill:#e1a91a;fill-opacity:1;stroke:#bf8f16;stroke-opacity:1" />
  <circle
     cx="18.2919"
     cy="9.94462"
     r="3.44665"
     transform="rotate(-120 18.2919 9.94462)"
     fill="#E19DE1"
     stroke="#BD42BD"
     stroke-width="0.861663"
     id="circle6"
     style="fill:#bb42c3;fill-opacity:1;stroke:#88308e;stroke-opacity:1" />
  <circle
     cx="16.0551"
     cy="7.70829"
     r="3.44665"
     transform="rotate(-150 16.0551 7.70829)"
     fill="#CCB3FF"
     stroke="#774DCB"
     stroke-width="0.861663"
     id="circle8"
     style="fill:#8a55d7;fill-opacity:1;stroke:#643e9c;stroke-opacity:1" />
  <circle
     cx="13"
     cy="6.88952"
     r="3.44665"
     fill="#80B5FF"
     stroke="#3373CC"
     stroke-width="0.861663"
     id="circle10"
     style="fill:#4a6cd4;fill-opacity:1;stroke:#364e9a;stroke-opacity:1" />
  <circle
     cx="9.94494"
     cy="7.70834"
     r="3.44665"
     transform="rotate(-30 9.94494 7.70834)"
     fill="black"
     stroke="black"
     stroke-width="0.861663"
     id="circle12"
     style="stroke:#575e75;stroke-opacity:1;fill:#575e75;fill-opacity:1" />
  <circle
     cx="7.70817"
     cy="9.94516"
     r="3.44665"
     transform="rotate(120 7.70817 9.94516)"
     fill="#13ECAF"
     stroke="#0B8E69"
     stroke-width="0.861663"
     id="circle14"
     style="fill:#0e9a6c;fill-opacity:1;stroke:#0a704e;stroke-opacity:1" />
  <circle
     cx="6.88947"
     cy="13.0004"
     r="3.44665"
     transform="rotate(90 6.88947 13.0004)"
     fill="#FF99AA"
     stroke="#FF3355"
     stroke-width="0.861663"
     id="circle16"
     style="fill:#632d99;fill-opacity:1;stroke:#48206f;stroke-opacity:1" />
  <circle
     cx="7.70816"
     cy="16.055"
     r="3.44665"
     transform="rotate(-120 7.70816 16.055)"
     fill="#FF9966"
     stroke="#E64D00"
     stroke-width="0.861663"
     id="circle18"
     style="fill:#cc5b22;fill-opacity:1;stroke:#944218;stroke-opacity:1" />
  <circle
     cx="9.94458"
     cy="18.2918"
     r="3.44665"
     transform="rotate(-150 9.94458 18.2918)"
     fill="#FFA54C"
     stroke="#DB6E00"
     stroke-width="0.861663"
     id="circle20"
     style="fill:#ee7d16;fill-opacity:1;stroke:#ad5b10;stroke-opacity:1" />
  <circle
     cx="13"
     cy="19.1107"
     r="3.44665"
     fill="#7ECE7E"
     stroke="#389438"
     stroke-width="0.861663"
     id="circle22"
     style="fill:#5cb712;fill-opacity:1;stroke:#43850d;stroke-opacity:1" />
  <path
     d="M19.5018 18.2914C19.5018 20.1949 17.9586 21.738 16.0551 21.738C14.1516 21.738 12.6085 20.1949 12.6085 18.2914C12.6085 16.3878 14.1516 14.8447 16.0551 14.8447L19.5018 18.2914Z"
     fill="#85C4E0"
     stroke="#2E8EB8"
     stroke-width="0.861663"
     id="path24"
     style="fill:#2ca5e2;fill-opacity:1;stroke:#2078a4;stroke-opacity:1" />
  <path
     fill-rule="evenodd"
     clip-rule="evenodd"
     d="M15.7425 13.7095C16.0794 15.2597 17.4594 16.4207 19.1105 16.4207C20.1207 16.4207 21.0295 15.9861 21.6599 15.2936C21.7114 15.5306 21.7385 15.7766 21.7385 16.029C21.7385 17.9325 20.1954 19.4757 18.2919 19.4757C16.3883 19.4757 14.8452 17.9325 14.8452 16.029C14.8452 15.1357 15.185 14.3218 15.7425 13.7095Z"
     fill="#FFBE4C"
     id="path26"
     style="fill:#c88330;fill-opacity:1" />
  <path
     d="M15.7425 13.7095L16.1635 13.618C16.1292 13.4604 16.0099 13.3352 15.8542 13.2934C15.6985 13.2516 15.5324 13.3002 15.4239 13.4194L15.7425 13.7095ZM21.6599 15.2936L22.0809 15.2021C22.0466 15.0445 21.9273 14.9193 21.7716 14.8775C21.6159 14.8357 21.4498 14.8843 21.3413 15.0036L21.6599 15.2936ZM19.1105 15.9899C17.6663 15.9899 16.4583 14.9743 16.1635 13.618L15.3215 13.801C15.7005 15.5451 17.2524 16.8515 19.1105 16.8515V15.9899ZM21.3413 15.0036C20.7891 15.6101 19.9945 15.9899 19.1105 15.9899V16.8515C20.247 16.8515 21.2699 16.362 21.9785 15.5836L21.3413 15.0036ZM21.2389 15.3851C21.2839 15.5922 21.3077 15.8076 21.3077 16.029H22.1693C22.1693 15.7457 22.1389 15.4689 22.0809 15.2021L21.2389 15.3851ZM21.3077 16.029C21.3077 17.6946 19.9575 19.0448 18.2919 19.0448V19.9065C20.4333 19.9065 22.1693 18.1705 22.1693 16.029H21.3077ZM18.2919 19.0448C16.6263 19.0448 15.276 17.6946 15.276 16.029H14.4144C14.4144 18.1705 16.1504 19.9065 18.2919 19.9065V19.0448ZM15.276 16.029C15.276 15.2471 15.573 14.5356 16.0611 13.9995L15.4239 13.4194C14.7971 14.108 14.4144 15.0243 14.4144 16.029H15.276Z"
     fill="#CF8B17"
     id="path28"
     style="fill:#925f23;fill-opacity:1" />
  <path
     d="M15.7425 13.7095C16.0794 15.2597 17.4594 16.4207 19.1105 16.4207C20.1208 16.4207 21.0295 15.9861 21.6599 15.2936"
     stroke="#CC9900"
     stroke-width="0.861663"
     stroke-linecap="round"
     stroke-linejoin="round"
     id="path30"
     style="stroke:#bf8f16;stroke-opacity:1" />
</svg>
